<?xml version="1.0" encoding="UTF-8" standalone="no"?>
<!--Generator: Xara Designer (www.xara.com), SVG filter version: 6.1.0.18-->

<svg
   xmlns:dc="http://purl.org/dc/elements/1.1/"
   xmlns:cc="http://creativecommons.org/ns#"
   xmlns:rdf="http://www.w3.org/1999/02/22-rdf-syntax-ns#"
   xmlns:svg="http://www.w3.org/2000/svg"
   xmlns="http://www.w3.org/2000/svg"
   xmlns:sodipodi="http://sodipodi.sourceforge.net/DTD/sodipodi-0.dtd"
   xmlns:inkscape="http://www.inkscape.org/namespaces/inkscape"
   version="1.1"
   overflow="visible"
   width="233.30193pt"
   height="88.292999pt"
   viewBox="0 0 233.30193 88.292999"
   id="svg23"
   sodipodi:docname="maktab_logo.svg"
   style="overflow:visible;fill-rule:evenodd;stroke-width:0.50099999;stroke-linejoin:bevel"
   inkscape:version="0.92.3 (2405546, 2018-03-11)">
  <metadata
     id="metadata27">
    <rdf:RDF>
      <cc:Work
         rdf:about="">
        <dc:format>image/svg+xml</dc:format>
        <dc:type
           rdf:resource="http://purl.org/dc/dcmitype/StillImage" />
        <dc:title></dc:title>
      </cc:Work>
    </rdf:RDF>
  </metadata>
  <sodipodi:namedview
     pagecolor="#ffffff"
     bordercolor="#666666"
     borderopacity="1"
     objecttolerance="10"
     gridtolerance="10"
     guidetolerance="10"
     inkscape:pageopacity="0"
     inkscape:pageshadow="2"
     inkscape:window-width="716"
     inkscape:window-height="480"
     id="namedview25"
     showgrid="false"
     fit-margin-top="0"
     fit-margin-left="0"
     fit-margin-right="0"
     fit-margin-bottom="0"
     inkscape:zoom="0.236"
     inkscape:cx="-182.9996"
     inkscape:cy="-28"
     inkscape:window-x="0"
     inkscape:window-y="0"
     inkscape:window-maximized="0"
     inkscape:current-layer="MouseOff" />
  <defs
     id="defs2" />
  <g
     id="Document"
     font-size="16"
     transform="matrix(1,0,0,-1,-422.2497,-265.707)"
     style="font-size:16px;font-family:'Times New Roman';fill:none;stroke:#000000">
    <g
       id="Spread"
       transform="translate(0,-750)">
      <g
         id="Page background">
        <path
           d="M 0,749.999 V 0 h 569.999 v 749.999 z"
           stroke-miterlimit="79.8403193612775"
           id="path4"
           inkscape:connector-curvature="0"
           style="stroke:none;stroke-width:0;stroke-linejoin:bevel;stroke-miterlimit:79.84031677;marker-start:none;marker-end:none" />
      </g>
      <g
         id="MouseOff">
        <g
           id="Group"
           style="fill:#f97f1d;stroke:none;stroke-linejoin:miter">
          <path
             d="M 436.645,463.764 454.219,396 l 74.502,20.529 -17.576,67.764 z"
             id="path7"
             inkscape:connector-curvature="0"
             style="marker-start:none;marker-end:none" />
        </g>
        <g
           aria-label="maktab"
           transform="matrix(1,0,0,-1,419.415,416.778)"
           style="font-size:56.69400024px;font-family:'Sharp Grotesk SmBold 21';fill:#231f1f;stroke:none;stroke-width:0.44100001;stroke-linecap:round;stroke-linejoin:round;stroke-miterlimit:79.84031677"
           id="text18">
          <path
             d="m 13.89003,-16.611342 q 0,-3.458334 1.13388,-5.556012 1.13388,-2.097678 3.96858,-2.097678 2.948088,0 3.855192,1.927596 0.963798,1.927596 0.963798,4.932378 V 0 h 10.941942 v -17.064894 q 0,-3.231558 1.077186,-5.215848 1.077186,-1.98429 3.855192,-1.98429 2.891394,0 3.855192,1.927596 1.020492,1.927596 1.020492,5.045766 V 0 H 55.56012 v -20.523228 q 0,-6.23634 -2.891394,-9.63798 -2.891394,-3.458334 -8.674182,-3.458334 -3.855192,0 -6.51981,1.757514 -2.607924,1.70082 -3.911886,4.648908 -1.13388,-3.061476 -3.68511,-4.705602 -2.55123,-1.70082 -6.576504,-1.70082 -3.798498,0 -6.349728,1.70082 -2.55123,1.70082 -3.855192,4.53552 L 12.132516,-32.88252 H 2.8347 V 0 h 11.05533 z"
             id="path837"
             inkscape:connector-curvature="0" />
          <path
             d="m 74.775118,-6.80328 q -1.927596,0 -2.891394,-0.680328 -0.963798,-0.737022 -0.963798,-2.097678 0,-0.793716 0.340164,-1.41735 0.340164,-0.623634 1.020492,-1.13388 0.793716,-0.453552 1.927596,-0.737022 1.13388,-0.340164 3.458334,-0.680328 1.70082,-0.28347 2.891394,-0.680328 1.247268,-0.396858 1.98429,-0.963798 v 1.644126 q 0,1.70082 -1.020492,3.231558 -0.963798,1.530738 -2.721312,2.55123 -0.907104,0.453552 -1.927596,0.737022 -0.963798,0.226776 -2.097678,0.226776 z M 84.129628,0 h 9.07104 v -20.69331 q 0,-6.122952 -3.628416,-9.524592 -3.628416,-3.40164 -12.18921,-3.40164 -8.107242,0 -12.415986,3.458334 -4.25205,3.40164 -4.705602,9.297816 h 11.168718 q 0.113388,-2.211066 1.530738,-3.40164 1.474044,-1.190574 4.53552,-1.190574 2.8347,0 3.911886,0.907104 1.077186,0.85041 1.077186,2.211066 0,1.474044 -1.70082,2.097678 -1.644126,0.56694 -5.839482,1.077186 -2.948088,0.396858 -4.989072,0.793716 -1.98429,0.340164 -3.40164,0.85041 -0.737022,0.226776 -1.474044,0.56694 -0.680328,0.340164 -1.360656,0.737022 -2.097678,1.247268 -3.288252,3.231558 -1.190574,1.98429 -1.190574,4.932378 v 0.056694 q 0,4.138662 2.721312,6.51981 2.778006,2.381148 8.390712,2.381148 5.045766,0 8.050548,-1.870902 3.061476,-1.927596 4.53552,-4.81899 z"
             id="path839"
             inkscape:connector-curvature="0" />
          <path
             d="m 121.82937,0 h 12.30259 l -11.84904,-20.239758 11.45219,-12.642762 h -12.81285 l -11.39549,12.699456 V -43.597686 H 98.698214 V 0 h 10.828556 v -9.07104 l 4.47882,-4.989072 z"
             id="path841"
             inkscape:connector-curvature="0" />
          <path
             d="m 158.7436,-9.864756 h -2.77801 q -2.49453,0 -3.79849,-0.396858 -1.24727,-0.396858 -1.70082,-1.757514 -0.17009,-0.680328 -0.28347,-1.70082 -0.11339,-1.077186 -0.11339,-2.494536 v -7.143444 h 8.67418 v -9.524592 h -8.67418 v -8.390712 h -8.90096 q -0.0567,1.077186 -0.17008,2.381148 -0.0567,1.303962 -0.28347,2.381148 -0.28347,1.927596 -1.02049,2.778006 -0.68033,0.793716 -2.21107,1.077186 -0.9071,0.170082 -1.81421,0.28347 -0.85041,0.05669 -1.92759,0.05669 v 8.957652 h 5.95287 v 9.014346 q 0,5.272542 1.07718,8.447406 1.13388,3.11817 3.96858,4.478826 1.41735,0.737022 3.40164,1.077186 Q 150.12611,0 152.73404,0 h 6.00956 z"
             id="path843"
             inkscape:connector-curvature="0" />
          <path
             d="m 177.46011,-6.80328 q -1.92759,0 -2.89139,-0.680328 -0.9638,-0.737022 -0.9638,-2.097678 0,-0.793716 0.34016,-1.41735 0.34017,-0.623634 1.0205,-1.13388 0.79371,-0.453552 1.92759,-0.737022 1.13388,-0.340164 3.45834,-0.680328 1.70082,-0.28347 2.89139,-0.680328 1.24727,-0.396858 1.98429,-0.963798 v 1.644126 q 0,1.70082 -1.02049,3.231558 -0.9638,1.530738 -2.72131,2.55123 -0.90711,0.453552 -1.9276,0.737022 -0.9638,0.226776 -2.09768,0.226776 z M 186.81462,0 h 9.07104 v -20.69331 q 0,-6.122952 -3.62841,-9.524592 -3.62842,-3.40164 -12.18921,-3.40164 -8.10725,0 -12.41599,3.458334 -4.25205,3.40164 -4.7056,9.297816 h 11.16872 q 0.11338,-2.211066 1.53073,-3.40164 1.47405,-1.190574 4.53552,-1.190574 2.8347,0 3.91189,0.907104 1.07719,0.85041 1.07719,2.211066 0,1.474044 -1.70082,2.097678 -1.64413,0.56694 -5.83949,1.077186 -2.94808,0.396858 -4.98907,0.793716 -1.98429,0.340164 -3.40164,0.85041 -0.73702,0.226776 -1.47404,0.56694 -0.68033,0.340164 -1.36066,0.737022 -2.09768,1.247268 -3.28825,3.231558 -1.19057,1.98429 -1.19057,4.932378 v 0.056694 q 0,4.138662 2.72131,6.51981 2.778,2.381148 8.39071,2.381148 5.04577,0 8.05055,-1.870902 3.06147,-1.927596 4.53552,-4.81899 z"
             id="path845"
             inkscape:connector-curvature="0" />
          <path
             d="m 222.2466,0.85041 q 6.23634,0 10.03484,-4.422132 3.85519,-4.422132 3.85519,-12.75615 v -0.793716 q 0,-5.612706 -1.75751,-9.241122 -1.75752,-3.628416 -4.87569,-5.38593 -1.53074,-0.907104 -3.28825,-1.360656 -1.75751,-0.453552 -3.7418,-0.453552 -3.62842,0 -6.23634,1.587432 -2.60793,1.530738 -4.08197,4.422132 V -43.597686 H 201.32651 V 0 h 9.63798 l 0.73703,-5.38593 q 1.30396,2.8347 3.91188,4.53552 2.60793,1.70082 6.6332,1.70082 z m -3.62842,-9.297816 q -3.06147,0 -4.87568,-1.927596 -1.75751,-1.98429 -1.75751,-6.122952 v -0.56694 q 0,-3.571722 1.8142,-5.556012 1.87091,-2.040984 4.87569,-2.040984 3.00478,0 4.7056,1.927596 1.75751,1.927596 1.75751,5.782788 v 0.623634 q 0,4.081968 -1.70082,6.009564 -1.64412,1.870902 -4.81899,1.870902 z"
             id="path847"
             inkscape:connector-curvature="0" />
        </g>
      </g>
    </g>
  </g>
</svg>
