<?xml version="1.0" encoding="UTF-8" standalone="no"?>
<svg
   xmlns:dc="http://purl.org/dc/elements/1.1/"
   xmlns:cc="http://creativecommons.org/ns#"
   xmlns:rdf="http://www.w3.org/1999/02/22-rdf-syntax-ns#"
   xmlns:svg="http://www.w3.org/2000/svg"
   xmlns="http://www.w3.org/2000/svg"
   xmlns:sodipodi="http://sodipodi.sourceforge.net/DTD/sodipodi-0.dtd"
   xmlns:inkscape="http://www.inkscape.org/namespaces/inkscape"
   height="6.82666in"
   style="shape-rendering:geometricPrecision; text-rendering:geometricPrecision; image-rendering:optimizeQuality; fill-rule:evenodd; clip-rule:evenodd"
   viewBox="0 0 6.82666 6.82666"
   width="6.82666in"
   xml:space="preserve"
   version="1.1"
   id="svg11"
   sodipodi:docname="phone.svg"
   inkscape:version="0.92.3 (2405546, 2018-03-11)"><metadata
     id="metadata15"><rdf:RDF><cc:Work
         rdf:about=""><dc:format>image/svg+xml</dc:format><dc:type
           rdf:resource="http://purl.org/dc/dcmitype/StillImage" /><dc:title></dc:title></cc:Work></rdf:RDF></metadata><sodipodi:namedview
     pagecolor="#ffffff"
     bordercolor="#666666"
     borderopacity="1"
     objecttolerance="10"
     gridtolerance="10"
     guidetolerance="10"
     inkscape:pageopacity="0"
     inkscape:pageshadow="2"
     inkscape:window-width="716"
     inkscape:window-height="480"
     id="namedview13"
     showgrid="false"
     inkscape:zoom="0.36010777"
     inkscape:cx="478.35143"
     inkscape:cy="327.67969"
     inkscape:window-x="0"
     inkscape:window-y="0"
     inkscape:window-maximized="0"
     inkscape:current-layer="svg11" /><defs
     id="defs4"><style
       type="text/css"
       id="style2">
   <![CDATA[
    .fil1 {fill:none}
    .fil0 {fill:black}
   ]]>
  </style></defs><g
     id="Layer_x0020_1"
     style="fill:#ffffff"
     transform="matrix(1.6819865,0,0,1.6819865,-2.3274558,-2.3268398)"><path
       class="fil0"
       d="M 4.25115,4.00915 3.943272,4.324347 C 3.752607,4.2293627 2.804922,3.723119 2.470352,2.890127 L 2.834336,2.543005 c 0.055595,-0.05302 0.073209,-0.122232 0.066303,-0.191831 -0.00765,-0.077012 -0.046685,-0.154933 -0.096303,-0.208303 l 8.66e-5,-8.27e-5 c -0.00145,-0.00156 -0.00297,-0.00301 -0.00456,-0.00435 l -0.608315,-0.600776 1.063e-4,-1.063e-4 c -0.0027,-0.00267 -0.00561,-0.00498 -0.00867,-0.00695 -0.03498,-0.025484 -0.327185,-0.222169 -0.502697,0.184516 -0.016276,0.037716 -0.035508,0.075579 -0.055819,0.115567 -0.189197,0.372508 -0.466425,0.918354 0.746799,2.37241 l -7.09e-5,5.91e-5 c 0.00124,0.00148 0.00254,0.00288 0.0039,0.0042 0.058654,0.066528 0.989618,1.10173 2.20519,1.15537 0.10928,0.00482 0.30937,-0.065646 0.47789,-0.169906 0.089138,-0.05515 0.170803,-0.120224 0.227429,-0.189283 0.062516,-0.076236 0.095803,-0.158339 0.079783,-0.240386 -0.00833,-0.04263 -0.029819,-0.083799 -0.067185,-0.122394 l -0.627358,-0.64802 1.063e-4,-1.023e-4 c -0.00306,-0.00316 -0.00641,-0.00586 -0.00998,-0.00809 -0.033484,-0.025039 -0.244744,-0.170055 -0.409831,0.024622 z"
       id="path6"
       style="fill:#ffffff"
       inkscape:connector-curvature="0" /></g></svg>