<?xml version="1.0" encoding="UTF-8" standalone="no"?>
<svg
   xmlns:dc="http://purl.org/dc/elements/1.1/"
   xmlns:cc="http://creativecommons.org/ns#"
   xmlns:rdf="http://www.w3.org/1999/02/22-rdf-syntax-ns#"
   xmlns:svg="http://www.w3.org/2000/svg"
   xmlns="http://www.w3.org/2000/svg"
   xmlns:sodipodi="http://sodipodi.sourceforge.net/DTD/sodipodi-0.dtd"
   xmlns:inkscape="http://www.inkscape.org/namespaces/inkscape"
   height="60px"
   version="1.1"
   viewBox="0 0 42 60"
   width="42px"
   id="svg12"
   sodipodi:docname="symbol.svg"
   inkscape:version="0.92.3 (2405546, 2018-03-11)">
  <metadata
     id="metadata16">
    <rdf:RDF>
      <cc:Work
         rdf:about="">
        <dc:format>image/svg+xml</dc:format>
        <dc:type
           rdf:resource="http://purl.org/dc/dcmitype/StillImage" />
        <dc:title></dc:title>
      </cc:Work>
    </rdf:RDF>
  </metadata>
  <sodipodi:namedview
     pagecolor="#ffffff"
     bordercolor="#666666"
     borderopacity="1"
     objecttolerance="10"
     gridtolerance="10"
     guidetolerance="10"
     inkscape:pageopacity="0"
     inkscape:pageshadow="2"
     inkscape:window-width="716"
     inkscape:window-height="480"
     id="namedview14"
     showgrid="false"
     inkscape:zoom="3.9333333"
     inkscape:cx="21"
     inkscape:cy="30"
     inkscape:window-x="0"
     inkscape:window-y="0"
     inkscape:window-maximized="0"
     inkscape:current-layer="svg12" />
  <desc
     id="desc4" />
  <defs
     id="defs6" />
  <g
     fill="none"
     fill-rule="evenodd"
     id="Page-1"
     stroke="none"
     stroke-width="1"
     style="fill:#f79422;fill-opacity:1">
    <g
       fill="#000000"
       id="Icons"
       transform="translate(-362.000000, -569.000000)"
       style="fill:#f79422;fill-opacity:1">
      <g
         id="23--Space-Geometry--(geometry,-shape,-form,-drawing)"
         transform="translate(362.000000, 569.000000)"
         style="fill:#f79422;fill-opacity:1">
        <path
           d="M20.293,41.707 C20.488,41.902 20.744,42 21,42 C21.256,42 21.512,41.902 21.707,41.707 L29.172,34.242 L33.929,39 L21,51.929 L8.071,39 L12.828,34.242 L20.293,41.707 Z M17.071,30 L21,26.071 L24.929,30 L21,33.929 L17.071,30 Z M8.071,21 L21,8.071 L33.929,21 L29.172,25.758 L21.707,18.293 C21.316,17.902 20.684,17.902 20.293,18.293 L12.828,25.758 L8.071,21 Z M33.414,30 L41.707,21.707 C42.098,21.316 42.098,20.684 41.707,20.293 L21.707,0.293 C21.316,-0.098 20.684,-0.098 20.293,0.293 L0.293,20.293 C-0.098,20.684 -0.098,21.316 0.293,21.707 L8.586,30 L0.293,38.293 C-0.098,38.684 -0.098,39.316 0.293,39.707 L20.293,59.707 C20.488,59.902 20.744,60 21,60 C21.256,60 21.512,59.902 21.707,59.707 L41.707,39.707 C42.098,39.316 42.098,38.684 41.707,38.293 L33.414,30 Z"
           id="Fill-79"
           style="fill:#f79422;fill-opacity:1" />
      </g>
    </g>
  </g>
</svg>
