<?xml version="1.0" encoding="UTF-8" standalone="no"?>
<svg
   xmlns:dc="http://purl.org/dc/elements/1.1/"
   xmlns:cc="http://creativecommons.org/ns#"
   xmlns:rdf="http://www.w3.org/1999/02/22-rdf-syntax-ns#"
   xmlns:svg="http://www.w3.org/2000/svg"
   xmlns="http://www.w3.org/2000/svg"
   xmlns:sodipodi="http://sodipodi.sourceforge.net/DTD/sodipodi-0.dtd"
   xmlns:inkscape="http://www.inkscape.org/namespaces/inkscape"
   enable-background="new 0 0 100 100"
   height="100px"
   version="1.1"
   viewBox="0 0 100 100"
   width="100px"
   xml:space="preserve"
   id="svg9"
   sodipodi:docname="white_clock.svg"
   inkscape:version="0.92.3 (2405546, 2018-03-11)"><metadata
     id="metadata15"><rdf:RDF><cc:Work
         rdf:about=""><dc:format>image/svg+xml</dc:format><dc:type
           rdf:resource="http://purl.org/dc/dcmitype/StillImage" /><dc:title></dc:title></cc:Work></rdf:RDF></metadata><defs
     id="defs13" /><sodipodi:namedview
     pagecolor="#ffffff"
     bordercolor="#666666"
     borderopacity="1"
     objecttolerance="10"
     gridtolerance="10"
     guidetolerance="10"
     inkscape:pageopacity="0"
     inkscape:pageshadow="2"
     inkscape:window-width="716"
     inkscape:window-height="480"
     id="namedview11"
     showgrid="false"
     inkscape:zoom="2.36"
     inkscape:cx="50"
     inkscape:cy="50"
     inkscape:window-x="220"
     inkscape:window-y="106"
     inkscape:window-maximized="0"
     inkscape:current-layer="svg9" /><g
     id="Vrstva_2"
     style="fill:#ffffff"><g
       id="g6"
       style="fill:#ffffff"><path
         d="M50.01,0C22.392,0,0,22.389,0,50.007s22.392,50.01,50.011,50.01s50.007-22.392,50.007-50.01    S77.629,0,50.01,0z M50.01,88.048c-21.009,0-38.041-17.031-38.041-38.041c0-21.006,17.032-38.038,38.041-38.038    s38.037,17.031,38.037,38.038C88.047,71.017,71.02,88.048,50.01,88.048z"
         fill="#231F20"
         id="path2"
         style="fill:#ffffff" /><path
         d="M62.34,37.155l-7.347,5.044V23.32c0-2.753-2.229-4.984-4.983-4.984c-2.752,0-4.984,2.231-4.984,4.984    v28.348c0,0.007,0.003,0.012,0.003,0.019c0,0.329,0.033,0.659,0.098,0.986c0.136,0.658,0.402,1.269,0.769,1.804    c0.003,0.005,0.003,0.01,0.006,0.013c0.016,0.021,0.036,0.034,0.049,0.054c0.201,0.284,0.435,0.541,0.688,0.776    c0.091,0.082,0.185,0.155,0.279,0.231c0.201,0.158,0.409,0.298,0.629,0.425c0.107,0.062,0.211,0.123,0.321,0.178    c0.243,0.114,0.5,0.205,0.763,0.282c0.09,0.025,0.181,0.062,0.275,0.085c0.357,0.08,0.724,0.132,1.104,0.132    c0.003,0,0.003,0,0.003,0h0.003c0.298,0,0.594-0.035,0.893-0.091c0.087-0.017,0.175-0.039,0.266-0.061    c0.201-0.048,0.402-0.109,0.601-0.187c0.09-0.034,0.182-0.064,0.269-0.104c0.211-0.096,0.416-0.209,0.617-0.336    c0.052-0.032,0.106-0.057,0.156-0.091c0.006-0.003,0.01-0.005,0.016-0.008L67.982,45.37c2.269-1.557,2.846-4.661,1.284-6.929    C67.71,36.173,64.607,35.596,62.34,37.155z"
         fill="#231F20"
         id="path4"
         style="fill:#ffffff" /></g></g></svg>